HIERARCHY
ROOT Hips
{
	OFFSET	0.00	0.00	0.00
	CHANNELS 6 Xposition Yposition Zposition Zrotation Xrotation Yrotation
	JOINT LeftUpLeg
	{
		OFFSET	 0.126116	-0.065224	 0.014019
		CHANNELS 3 Zrotation Xrotation Yrotation
		JOINT LeftLeg
		{
			OFFSET	 0.000000	 0.569914	 0.000000
			CHANNELS 3 Zrotation Xrotation Yrotation
			JOINT LeftFoot
			{
				OFFSET	 0.000000	 0.544423	 0.000000
				CHANNELS 3 Zrotation Xrotation Yrotation
				JOINT LeftToeBase
				{
					OFFSET	 0.000000	 0.207117	 0.000000
					CHANNELS 3 Zrotation Xrotation Yrotation
					End Site
					{
						OFFSET	 0.000000	 0.207117	 0.000000
					}
				}
			}
		}
	}
	JOINT RightUpLeg
	{
		OFFSET	-0.124023	-0.065224	 0.008373
		CHANNELS 3 Zrotation Xrotation Yrotation
		JOINT RightLeg
		{
			OFFSET	 0.000000	 0.570047	 0.000000
			CHANNELS 3 Zrotation Xrotation Yrotation
			JOINT RightFoot
			{
				OFFSET	 0.000000	 0.544354	 0.000000
				CHANNELS 3 Zrotation Xrotation Yrotation
				JOINT RightToeBase
				{
					OFFSET	 0.000000	 0.207540	 0.000000
					CHANNELS 3 Zrotation Xrotation Yrotation
					End Site
					{
						OFFSET	 0.000000	 0.207540	 0.000000
					}
				}
			}
		}
	}
	JOINT Spine
	{
		OFFSET	 0.000184	 0.117403	 0.007763
		CHANNELS 3 Zrotation Xrotation Yrotation
		JOINT Spine1
		{
			OFFSET	 0.000000	 0.137269	 0.000000
			CHANNELS 3 Zrotation Xrotation Yrotation
			JOINT Spine2
			{
				OFFSET	 0.000000	 0.156879	 0.000000
				CHANNELS 3 Zrotation Xrotation Yrotation
				JOINT LeftShoulder
				{
					OFFSET	 0.080501	 0.160143	 0.002496
					CHANNELS 3 Zrotation Xrotation Yrotation
					JOINT LeftArm
					{
						OFFSET	 0.000000	 0.164363	 0.000000
						CHANNELS 3 Zrotation Xrotation Yrotation
						JOINT LeftForeArm
						{
							OFFSET	 0.000000	 0.364576	 0.000000
							CHANNELS 3 Zrotation Xrotation Yrotation
							JOINT LeftHand
							{
								OFFSET	 0.000000	 0.360812	 0.000000
								CHANNELS 3 Zrotation Xrotation Yrotation
								JOINT LeftHandIndex1
								{
									OFFSET	 0.000000	 0.086006	 0.000000
									CHANNELS 3 Zrotation Xrotation Yrotation
									JOINT LeftHandIndex2
									{
										OFFSET	 0.000000	 0.047237	 0.000000
										CHANNELS 3 Zrotation Xrotation Yrotation
										JOINT LeftHandIndex3
										{
											OFFSET	-0.004284	 0.038165	 0.000551
											CHANNELS 3 Zrotation Xrotation Yrotation
											End Site
											{
												OFFSET	-0.004284	 0.038165	 0.000551
											}
										}
									}
								}
							}
						}
					}
				}
				JOINT Neck
				{
					OFFSET	 0.000000	 0.176489	 0.000000
					CHANNELS 3 Zrotation Xrotation Yrotation
					JOINT Head
					{
						OFFSET	 0.000000	 0.077941	 0.001747
						CHANNELS 3 Zrotation Xrotation Yrotation
						End Site
						{
							OFFSET	 0.000000	 0.077941	 0.001747
						}
					}
				}
				JOINT RightShoulder
				{
					OFFSET	-0.080363	 0.159706	-0.000306
					CHANNELS 3 Zrotation Xrotation Yrotation
					JOINT RightArm
					{
						OFFSET	 0.000000	 0.164196	 0.000000
						CHANNELS 3 Zrotation Xrotation Yrotation
						JOINT RightForeArm
						{
							OFFSET	 0.000000	 0.365611	 0.000000
							CHANNELS 3 Zrotation Xrotation Yrotation
							JOINT RightHand
							{
								OFFSET	 0.000000	 0.360648	 0.000000
								CHANNELS 3 Zrotation Xrotation Yrotation
								JOINT RightHandIndex1
								{
									OFFSET	 0.000000	 0.069977	 0.000000
									CHANNELS 3 Zrotation Xrotation Yrotation
									JOINT RightHandIndex2
									{
										OFFSET	 0.000000	 0.052305	 0.000000
										CHANNELS 3 Zrotation Xrotation Yrotation
										JOINT RightHandIndex3
										{
											OFFSET	 0.009002	 0.042196	 0.000782
											CHANNELS 3 Zrotation Xrotation Yrotation
											End Site
											{
												OFFSET	 0.009002	 0.042196	 0.000782
											}
										}
									}
								}
							}
						}
					}
				}
			}
		}
	}
}
MOTION
Frames:    4
Frame Time: 0.03333334
 0.421805	 1.238538	 0.084533	 0.530733	-2.389217	-177.251600	 176.829100	 10.513320	-1.444741	 8.381168	-28.752120	 7.746602	 13.222490	 82.109070	-10.627480	 1.292262	 28.425850	-2.713146	 178.108400	-11.833800	 3.793062	-0.963710	-5.000954	 0.983343	 5.565338	 80.403760	-9.886826	-1.288183	 28.361890	 2.710176	-0.097990	 6.535428	-2.057182	 0.622069	-6.683920	-1.139298	 0.006116	 7.713192	 2.911898	-117.493600	-0.790393	 89.953770	 2.606195	-0.453934	-7.516476	 27.435400	-2.147183	 35.135530	-12.195410	-0.153668	-4.523270	-6.580301	 5.266122	 0.000000	 0.000000	 0.000000	 0.000000	 0.000000	 0.000000	 0.000000	 4.818934	 27.191440	 1.693224	-3.988512	-16.206290	 0.855813	 116.341900	-0.455187	-90.563970	-5.343865	 3.013696	 19.840390	-17.843770	 0.418864	-57.068860	-7.391273	-15.282610	 10.451990	 15.208500	 5.323790	 0.000000	 0.000000	 0.000000	 0.000000	 0.000000	 0.000000	 0.000000
 0.421840	 1.238339	 0.086408	 0.533780	-2.485471	-177.242000	 176.811300	 10.711260	-1.421769	 8.421816	-28.868250	 7.789553	 13.303630	 82.074550	-10.720940	 1.292262	 28.425850	-2.713146	 178.105600	-11.649520	 3.793482	-0.964703	-5.006070	 0.949062	 5.252509	 80.275890	-9.575759	-1.288183	 28.361890	 2.710176	-0.100769	 6.600989	-2.050790	 0.610990	-6.878119	-1.143655	 0.016035	 7.936320	 2.906464	-117.594700	-0.821218	 89.940010	 2.471360	-0.409191	-7.275189	 27.928940	-2.182779	 34.879170	-12.144230	-0.253127	-4.258118	-6.580301	 5.266122	 0.000000	 0.000000	 0.000000	 0.000000	 0.000000	 0.000000	 0.000000	 4.889440	 27.412670	 1.634666	-3.996297	-16.316760	 0.867677	 116.501400	-0.499186	-90.548740	-5.176329	 3.071111	 19.724000	-18.460770	 0.432833	-56.862300	-7.416744	-15.085360	 10.028210	 15.208500	 5.323790	 0.000000	 0.000000	 0.000000	 0.000000	 0.000000	 0.000000	 0.000000
 0.421753	 1.233372	 0.102861	 0.599297	-3.627016	-177.129400	 176.516800	 13.439470	-1.105974	 9.226393	-31.112690	 8.468209	 15.554670	 82.383430	-13.202370	 1.292262	 28.425850	-2.713146	 178.488300	-6.569036	 3.859319	-2.250605	-11.547260	 0.364475	 4.288092	 82.584020	-7.935750	-1.288183	 28.361890	 2.710176	-0.154971	 7.266747	-1.957425	 0.545433	-8.293721	-1.196375	 0.109971	 10.190270	 2.850618	-118.806400	-1.188520	 89.770710	 0.938301	 1.342766	-3.937858	 34.219570	-2.620176	 32.082520	-12.518830	-2.433926	-1.735149	-6.580301	 5.266122	 0.000000	 0.000000	 0.000000	 0.000000	 0.000000	 0.000000	 0.000000	 5.766929	 30.059780	 0.898289	-4.089011	-17.638280	 1.016316	 118.412800	-1.022926	-90.356830	-3.757278	 4.928734	 18.181950	-25.202200	 0.582058	-54.758740	-6.953019	-13.974130	 5.296030	 15.208500	 5.323790	 0.000000	 0.000000	 0.000000	 0.000000	 0.000000	 0.000000	 0.000000
 0.421683	 1.232090	 0.105958	 0.618175	-3.862039	-177.105600	 176.450400	 14.039710	-1.034011	 9.423331	-31.645880	 8.627659	 16.146940	 82.496870	-13.848940	 1.292262	 28.425850	-2.713146	 178.612600	-5.184684	 3.871046	-2.667137	-13.609520	 0.192955	 4.340416	 83.457970	-7.775881	-1.288183	 28.361890	 2.710176	-0.158021	 7.426628	-1.936347	 0.525352	-8.490832	-1.207890	 0.133014	 10.615330	 2.840823	-119.059000	-1.264577	 89.734470	 0.749696	 1.888968	-3.151137	 35.408310	-2.699425	 31.548620	-12.718930	-3.105755	-1.338342	-6.580301	 5.266122	 0.000000	 0.000000	 0.000000	 0.000000	 0.000000	 0.000000	 0.000000	 5.957814	 30.610390	 0.736347	-4.108190	-17.913150	 1.048790	 118.811300	-1.131242	-90.314640	-3.664289	 5.488407	 17.827380	-26.326030	 0.606160	-54.397800	-6.770083	-14.010260	 4.372904	 15.208500	 5.323790	 0.000000	 0.000000	 0.000000	 0.000000	 0.000000	 0.000000	 0.000000
